# OBJ generated by ONSHAPE BY PTC INC, 1.190 Units = meters
mtllib joint2.mtl
g Part 6
v -0.00317848 -0.00313624 -0.00124671 
v -0.00317848 -0.00313624 0.0175392 
v -0.00417848 -0.00313624 0.0175392 
v -0.00417848 -0.00313624 -0.00124671 
v -0.00317848 -0.00113624 0.0195392 
v -0.00417848 -0.00113624 0.0195392 
v -0.00317848 0.00112988 0.0195392 
v -0.00417848 0.00112988 0.0195392 
v -0.00317848 0.00312988 0.0175392 
v -0.00417848 0.00312988 0.0175392 
v -0.00317848 0.00312988 -0.00124671 
v -0.00417848 0.00312988 -0.00124671 
v -0.00417848 0.00112988 -0.00324671 
v -0.00417848 -0.00113624 -0.00324671 
v -0.00317848 -0.00113624 -0.00324671 
v -0.00317848 0.00112988 -0.00324671 
vn 0 -1 0 
vn 0 -0.707107 0.707107 
vn 0 0 1 
vn 0 0.707107 0.707107 
vn 0 1 0 
vn -1 0 0 
vn 1 0 0 
vn 0 0 -1 
vn 0 -0.707107 -0.707107 
vn 0 0.707107 -0.707107 
usemtl 0.615686_0.811765_0.929412_0.000000_0.000000
o mesh0
f 1//1 2//1 3//1 
f 3//1 4//1 1//1 
o mesh1
f 5//2 6//2 3//2 
f 3//2 2//2 5//2 
o mesh2
f 7//3 8//3 6//3 
f 6//3 5//3 7//3 
o mesh3
f 9//4 10//4 8//4 
f 8//4 7//4 9//4 
o mesh4
f 11//5 12//5 10//5 
f 10//5 9//5 11//5 
o mesh5
f 4//6 3//6 10//6 
f 10//6 3//6 6//6 
f 12//6 13//6 14//6 
f 6//6 8//6 10//6 
f 10//6 12//6 4//6 
f 14//6 4//6 12//6 
o mesh6
f 9//7 7//7 5//7 
f 11//7 9//7 2//7 
f 2//7 1//7 11//7 
f 11//7 1//7 15//7 
f 15//7 16//7 11//7 
f 5//7 2//7 9//7 
o mesh7
f 13//8 16//8 15//8 
f 15//8 14//8 13//8 
o mesh8
f 1//9 4//9 14//9 
f 14//9 15//9 1//9 
o mesh9
f 16//10 13//10 12//10 
f 12//10 11//10 16//10 
g Part 5
v 0.00412152 0.00112988 0.0195392 
v 0.00312152 0.00112988 0.0195392 
v 0.00312152 -0.00113624 0.0195392 
v 0.00412152 -0.00113624 0.0195392 
v 0.00312152 -0.00313624 0.0175392 
v 0.00412152 -0.00313624 0.0175392 
v 0.00312152 -0.00313624 -0.00124671 
v 0.00412152 -0.00313624 -0.00124671 
v 0.00412152 0.00312988 0.0175392 
v 0.00312152 0.00312988 0.0175392 
v 0.00412152 0.00312988 -0.00124671 
v 0.00312152 0.00312988 -0.00124671 
v 0.00312152 0.00112988 -0.00324671 
v 0.00312152 -0.00113624 -0.00324671 
v 0.00412152 -0.00113624 -0.00324671 
v 0.00412152 0.00112988 -0.00324671 
vn 0 0 1 
vn 0 -0.707107 0.707107 
vn 0 -1 0 
vn 0 0.707107 0.707107 
vn 0 1 0 
vn -1 0 0 
vn 1 0 0 
vn 0 0 -1 
vn 0 -0.707107 -0.707107 
vn 0 0.707107 -0.707107 
o mesh10
f 17//11 18//11 19//11 
f 19//11 20//11 17//11 
o mesh11
f 20//12 19//12 21//12 
f 21//12 22//12 20//12 
o mesh12
f 23//13 24//13 22//13 
f 22//13 21//13 23//13 
o mesh13
f 25//14 26//14 18//14 
f 18//14 17//14 25//14 
o mesh14
f 27//15 28//15 26//15 
f 26//15 25//15 27//15 
o mesh15
f 23//16 21//16 26//16 
f 26//16 21//16 19//16 
f 28//16 29//16 30//16 
f 19//16 18//16 26//16 
f 26//16 28//16 23//16 
f 30//16 23//16 28//16 
o mesh16
f 25//17 17//17 20//17 
f 27//17 25//17 22//17 
f 22//17 24//17 27//17 
f 27//17 24//17 31//17 
f 31//17 32//17 27//17 
f 20//17 22//17 25//17 
o mesh17
f 29//18 32//18 31//18 
f 31//18 30//18 29//18 
o mesh18
f 24//19 23//19 30//19 
f 30//19 31//19 24//19 
o mesh19
f 32//20 29//20 28//20 
f 28//20 27//20 32//20 
