# OBJ generated by ONSHAPE BY PTC INC, 1.190 Units = meters
mtllib body.mtl
g Part 12
v -0.0156159 0.0205976 0.018 
v -0.0156159 -0.0232801 0.018 
v -0.00861588 -0.0162801 0.025 
v -0.00861588 0.0135976 0.025 
v 0.00823266 -0.0162801 0.025 
v 0.00823266 0.0135976 0.025 
v 0.0152327 0.0205976 0.018 
v 0.0152327 -0.0232801 0.018 
v -0.0156159 0.0205976 0.007 
v -0.0156159 -0.0232801 0.007 
v 0.0152327 0.0205976 0.007 
v 0.0152327 -0.0232801 0.007 
v -0.00861588 0.0135976 0 
v -0.00861588 -0.0162801 0 
v 0.00823266 0.0135976 0 
v 0.00823266 -0.0162801 0 
vn -0.707107 0 0.707107 
vn 0 0 1 
vn 0 0.707107 0.707107 
vn 0 -0.707107 0.707107 
vn -1 0 0 
vn 0.707107 0 0.707107 
vn 0 1 0 
vn 0 -1 0 
vn -0.707107 0 -0.707107 
vn 0 0 -1 
vn 0 0.707107 -0.707107 
vn 0 -0.707107 -0.707107 
vn 1 0 0 
vn 0.707107 0 -0.707107 
usemtl 0.615686_0.811765_0.929412_0.000000_0.000000
o mesh0
f 1//1 2//1 3//1 
f 3//1 4//1 1//1 
o mesh1
f 3//2 5//2 6//2 
f 6//2 4//2 3//2 
o mesh2
f 7//3 1//3 4//3 
f 4//3 6//3 7//3 
o mesh3
f 8//4 5//4 3//4 
f 3//4 2//4 8//4 
o mesh4
f 2//5 1//5 9//5 
f 9//5 10//5 2//5 
o mesh5
f 7//6 6//6 5//6 
f 5//6 8//6 7//6 
o mesh6
f 9//7 1//7 7//7 
f 7//7 11//7 9//7 
o mesh7
f 2//8 10//8 12//8 
f 12//8 8//8 2//8 
o mesh8
f 9//9 13//9 14//9 
f 14//9 10//9 9//9 
o mesh9
f 14//10 13//10 15//10 
f 15//10 16//10 14//10 
o mesh10
f 11//11 15//11 13//11 
f 13//11 9//11 11//11 
o mesh11
f 12//12 10//12 14//12 
f 14//12 16//12 12//12 
o mesh12
f 12//13 11//13 7//13 
f 7//13 8//13 12//13 
o mesh13
f 11//14 12//14 16//14 
f 16//14 15//14 11//14 
