# OBJ generated by ONSHAPE BY PTC INC, 1.190 Units = meters
mtllib gripper3.mtl
g Part 11
v 0.00351057 -0.000337953 0.00249971 
v 0.00351057 0.000356618 0.00249971 
v 0 0.000356618 0.00249971 
v 0 -0.000337953 0.00249971 
v 0.00351057 0.000356618 0.0104997 
v 0.00351057 -0.000337953 0.0104997 
v 0.00416633 0.000356618 0.0104997 
v 0.00416633 -0.000337953 0.0104997 
v 0.00416633 0.000356618 0.00149971 
v 0 0.000356618 0.00149971 
v 0 -0.000337953 0.00149971 
v 0.00416633 -0.000337953 0.00149971 
vn 0 0 1 
vn -1 0 0 
vn 0 1 0 
vn 0 -1 0 
vn 1 0 0 
vn -1 0 0 
vn 0 0 -1 
usemtl 0.615686_0.811765_0.929412_0.000000_0.000000
o mesh0
f 1//1 2//1 3//1 
f 3//1 4//1 1//1 
o mesh1
f 5//2 2//2 1//2 
f 1//2 6//2 5//2 
o mesh2
f 7//1 5//1 6//1 
f 6//1 8//1 7//1 
o mesh3
f 7//3 9//3 2//3 
f 10//3 3//3 2//3 
f 2//3 9//3 10//3 
f 2//3 5//3 7//3 
o mesh4
f 11//4 12//4 1//4 
f 8//4 6//4 1//4 
f 1//4 12//4 8//4 
f 1//4 4//4 11//4 
o mesh5
f 8//5 12//5 9//5 
f 9//5 7//5 8//5 
o mesh6
f 3//6 10//6 11//6 
f 11//6 4//6 3//6 
o mesh7
f 10//7 9//7 12//7 
f 12//7 11//7 10//7 
