# OBJ generated by ONSHAPE BY PTC INC, 1.190 Units = meters
mtllib joint3.mtl
g Part 8
v 0.00312152 -0.00313224 0.0183193 
v 0.00312152 0.00313388 0.0183193 
v -0.00317848 0.00313388 0.0183193 
v -0.00317848 -0.00313224 0.0183193 
v 0.00312152 0.00313388 -0.00100619 
v 0.00312152 -0.00313224 -0.00100619 
v 0.00312152 -0.00113224 -0.00300619 
v 0.00312152 0.00113388 -0.00300619 
v 0.00212152 0.00113388 -0.00300619 
v 0.00212152 -0.00113224 -0.00300619 
v 0.00212152 -0.00313224 -0.00100619 
v 0.00212152 0.00313388 -0.00100619 
v 0.00212152 0.00313388 0.0173193 
v 0.00212152 -0.00313224 0.0173193 
v -0.00217848 -0.00313224 0.0173193 
v -0.00217848 0.00313388 0.0173193 
v -0.00317848 -0.00313224 -0.00100619 
v -0.00217848 -0.00313224 -0.00100619 
v -0.00317848 0.00313388 -0.00100619 
v -0.00217848 0.00313388 -0.00100619 
v -0.00217848 -0.00113224 -0.00300619 
v -0.00217848 0.00113388 -0.00300619 
v -0.00317848 0.00113388 -0.00300619 
v -0.00317848 -0.00113224 -0.00300619 
vn 0 0 1 
vn 1 0 0 
vn 0 0 -1 
vn 0 -0.707107 -0.707107 
vn 0 0.707107 -0.707107 
vn -1 0 0 
vn 0 0 -1 
vn 0 -1 0 
vn 0 1 0 
vn 1 0 0 
vn -1 0 0 
vn 0 -0.707107 -0.707107 
vn 0 0 -1 
vn 0 0.707107 -0.707107 
usemtl 0.615686_0.811765_0.929412_0.000000_0.000000
o mesh0
f 1//1 2//1 3//1 
f 3//1 4//1 1//1 
o mesh1
f 5//2 6//2 7//2 
f 1//2 6//2 5//2 
f 5//2 2//2 1//2 
f 7//2 8//2 5//2 
o mesh2
f 9//3 8//3 7//3 
f 7//3 10//3 9//3 
o mesh3
f 6//4 11//4 10//4 
f 10//4 7//4 6//4 
o mesh4
f 8//5 9//5 12//5 
f 12//5 5//5 8//5 
o mesh5
f 13//6 12//6 11//6 
f 11//6 12//6 9//6 
f 9//6 10//6 11//6 
f 11//6 14//6 13//6 
o mesh6
f 14//7 15//7 16//7 
f 16//7 13//7 14//7 
o mesh7
f 6//8 1//8 14//8 
f 1//8 4//8 15//8 
f 15//8 14//8 1//8 
f 17//8 18//8 15//8 
f 15//8 4//8 17//8 
f 14//8 11//8 6//8 
o mesh8
f 19//9 3//9 16//9 
f 2//9 13//9 16//9 
f 16//9 3//9 2//9 
f 5//9 12//9 13//9 
f 13//9 2//9 5//9 
f 16//9 20//9 19//9 
o mesh9
f 20//10 18//10 21//10 
f 15//10 18//10 20//10 
f 20//10 16//10 15//10 
f 21//10 22//10 20//10 
o mesh10
f 3//11 19//11 17//11 
f 17//11 19//11 23//11 
f 23//11 24//11 17//11 
f 17//11 4//11 3//11 
o mesh11
f 18//12 17//12 24//12 
f 24//12 21//12 18//12 
o mesh12
f 23//13 22//13 21//13 
f 21//13 24//13 23//13 
o mesh13
f 22//14 23//14 19//14 
f 19//14 20//14 22//14 
